# Blender v2.93.5 OBJ File: ''
# www.blender.org
mtllib direction_block.mtl
o Cube
v 1.000000 1.000000 -1.000000
v 1.000000 -1.000000 -1.000000
v 1.000000 1.000000 1.000000
v 1.000000 -1.000000 1.000000
v -1.000000 1.000000 -1.000000
v -1.000000 -1.000000 -1.000000
v -1.000000 1.000000 1.000000
v -1.000000 -1.000000 1.000000
vt 0.500815 0.005665
vt 0.500815 0.993598
vt 0.005439 0.993598
vt 0.005439 0.005665
vt 0.998832 1.000685
vt 0.497732 1.000685
vt 0.497732 -0.007059
vt 0.998832 -0.007059
vt 0.997804 1.001832
vt 0.499129 1.001832
vt 0.499129 -0.002569
vt 0.997804 -0.002569
vt 0.997533 -0.008943
vt 0.997533 1.002570
vt 0.499768 1.002570
vt 0.499768 -0.008943
vt 0.997951 1.006911
vt 0.502537 1.006911
vt 0.502537 -0.007648
vt 0.997951 -0.007648
vt 0.997566 1.003617
vt 0.500472 1.003617
vt 0.500472 -0.009991
vt 0.997566 -0.009991
vn 0.0000 1.0000 0.0000
vn 0.0000 0.0000 1.0000
vn -1.0000 0.0000 0.0000
vn 0.0000 -1.0000 0.0000
vn 1.0000 0.0000 0.0000
vn 0.0000 0.0000 -1.0000
usemtl Material
s off
f 1/1/1 5/2/1 7/3/1 3/4/1
f 4/5/2 3/6/2 7/7/2 8/8/2
f 8/9/3 7/10/3 5/11/3 6/12/3
f 6/13/4 2/14/4 4/15/4 8/16/4
f 2/17/5 1/18/5 3/19/5 4/20/5
f 6/21/6 5/22/6 1/23/6 2/24/6
